<?xml version="1.0" encoding="utf-8"?>
<!-- Generator: Adobe Illustrator 21.0.0, SVG Export Plug-In . SVG Version: 6.00 Build 0)  -->
<svg version="1.1" id="图层_1" xmlns="http://www.w3.org/2000/svg" xmlns:xlink="http://www.w3.org/1999/xlink" x="0px" y="0px"
	 viewBox="0 0 50 50" style="enable-background:new 0 0 50 50;" xml:space="preserve">
<style type="text/css">
	.st0{fill:#FF5B35;}
</style>
<g>
	<g>
		<path class="st0" d="M2.1,10.3l14.8,14.5c0.1,0.1,0.1,0.2,0,0.4L2.1,39.7c-0.4,0.4-0.1,1,0.4,1h7.3c0.4,0,0.8-0.2,1.1-0.4L24,27.4
			c1.3-1.3,1.3-3.4,0-4.7L10.9,9.8c-0.3-0.3-0.7-0.4-1.1-0.4H2.5C2.1,9.3,1.8,10,2.1,10.3z"/>
	</g>
	<path class="st0" d="M47.5,9.3h-7.3c-0.4,0-0.8,0.2-1.1,0.4c-2.1,2-10.7,10.5-11.9,11.6c6.1,3.1,9.4,0,9.4,0l11.3-11.1
		C48.2,10,48,9.3,47.5,9.3z"/>
	<path class="st0" d="M47.5,40.7h-7.3c-0.4,0-0.8-0.2-1.1-0.4c-2.1-2-10.7-10.5-11.9-11.6c6.1-3.1,9.4,0,9.4,0l11.3,11.1
		C48.2,40,48,40.7,47.5,40.7z"/>
</g>
</svg>
