<?xml version="1.0" encoding="utf-8"?>
<!-- Generator: Adobe Illustrator 21.0.0, SVG Export Plug-In . SVG Version: 6.00 Build 0)  -->
<svg version="1.1" id="图层_1" xmlns="http://www.w3.org/2000/svg" xmlns:xlink="http://www.w3.org/1999/xlink" x="0px" y="0px"
	 viewBox="0 0 410 76" style="enable-background:new 0 0 410 76;" xml:space="preserve">
<style type="text/css">
	.st0{fill:#FFFFFF;}
	.st1{fill:#FF5B35;}
</style>
<g>
	<g>
		<path class="st0" d="M154.4,11.6c1.1,0,1.5,0.5,1.5,1.5v6.7c0,1-0.4,1.5-1.5,1.5h-37.9c-9.9,0-12.7,2.9-12.7,11.9v9.6
			c0,9,2.7,11.9,12.7,11.9h37.9c1.1,0,1.5,0.5,1.5,1.5v6.7c0,1-0.4,1.5-1.5,1.5h-39C98,64.4,92.5,58.8,92.5,45V31
			c0-13.9,5.5-19.4,22.9-19.4H154.4z"/>
		<path class="st0" d="M308.2,13.3v6.5c0,0.9-0.7,1.7-1.7,1.7h-25.2c-8.8,0-15,0.3-15,10.2V63c0,0.8-0.6,1.4-1.4,1.4h-8.5
			c-0.8,0-1.4-0.6-1.4-1.4V30.3c0-17.2,8-18.6,25.4-18.6h26C307.4,11.6,308.2,12.4,308.2,13.3z"/>
		<path class="st0" d="M216.4,11.6h-41.8c-0.8,0-1.5,0.7-1.5,1.5v6.7c0,0.8,0.7,1.5,1.5,1.5h40.7c9.9,0,12.7,2.8,12.7,10.2v20.3
			c0,2.8-0.8,3.7-3.3,3.7H185c-5.2,0-5.2-13,0-13h35.2v-8.6H183c-6.3,0-11.4,5.1-11.4,11.4v7.6c0,6.3,5.1,11.4,11.4,11.4h49.4
			c5.6,0,7.1-1.5,7.1-7.7V31C239.4,17.1,233.8,11.6,216.4,11.6z"/>
		<path class="st0" d="M63.1,11.6H34.9c-17.4,0-23,5.5-23,19.4v14c0,13.8,5.6,19.4,23,19.4h41.8c1,0,1.5-0.5,1.5-1.5v-6.7
			c0-1-0.5-1.5-1.5-1.5H36c-9.9,0-12.8-2.9-12.8-10.2V30.8c0-7.4,2.8-10.3,12.8-10.3h25c5.9,0,7.7,1.9,7.7,7.2v3.1c0,1.6-0.7,2-2,2
			H31v8.6h43c3.8,0,5.8-2.3,5.8-6.4v-7.7C79.8,15.7,76.3,11.6,63.1,11.6z"/>
		<g>
			<g>
				<path class="st1" d="M320.7,13.3l24.9,24.4c0.2,0.2,0.2,0.4,0,0.6l-24.9,24.4c-0.6,0.6-0.2,1.7,0.7,1.7h12.3
					c0.7,0,1.3-0.3,1.8-0.7L357.6,42c2.2-2.2,2.2-5.8,0-8l-22.1-21.6c-0.5-0.5-1.1-0.7-1.8-0.7h-12.3
					C320.6,11.6,320.1,12.7,320.7,13.3z"/>
			</g>
			<path class="st1" d="M397.1,11.6h-12.3c-0.7,0-1.3,0.3-1.8,0.7c-3.5,3.4-18.1,17.7-20,19.6c10.2,5.3,15.8,0,15.8,0l19-18.7
				C398.4,12.7,398,11.6,397.1,11.6z"/>
			<path class="st1" d="M397.1,64.4h-12.3c-0.7,0-1.3-0.3-1.8-0.7c-3.5-3.4-18.1-17.7-20-19.6c10.2-5.3,15.8,0,15.8,0l19,18.7
				C398.4,63.3,398,64.4,397.1,64.4z"/>
		</g>
	</g>
</g>
</svg>
