<?xml version="1.0" encoding="UTF-8"?>
<svg width="32px" height="9px" viewBox="0 0 32 9" version="1.1" xmlns="http://www.w3.org/2000/svg" xmlns:xlink="http://www.w3.org/1999/xlink">
    <title>Ultron</title>
    <g id="页面-1" stroke="none" stroke-width="1" fill="none" fill-rule="evenodd">
        <g id="画板备份" transform="translate(-82.000000, -9.000000)" fill-rule="nonzero">
            <g id="编组-6" transform="translate(9.061303, 5.460653)">
                <g id="Ultron" transform="translate(73.776588, 3.622355)">
                    <path d="M3.18505859,8.12109375 C4.55647786,8.12109375 5.48567708,7.69140625 5.97265625,6.83203125 C6.23404948,6.36295573 6.36474609,5.70768229 6.36474609,4.86621094 L6.36474609,4.86621094 L6.36474609,0 L4.68359375,0 L4.68359375,4.86621094 C4.68359375,5.41048177 4.61914062,5.80794271 4.49023438,6.05859375 C4.28971354,6.50260417 3.85465495,6.72460938 3.18505859,6.72460938 C2.51188151,6.72460938 2.07503255,6.50260417 1.87451172,6.05859375 C1.74560547,5.80794271 1.68115234,5.41048177 1.68115234,4.86621094 L1.68115234,4.86621094 L1.68115234,0 L0,0 L0,4.86621094 C0,5.70768229 0.130696615,6.36295573 0.392089844,6.83203125 C0.88264974,7.69140625 1.81363932,8.12109375 3.18505859,8.12109375 Z M9.38330078,7.91699219 L9.38330078,0 L7.85253906,0 L7.85253906,7.91699219 L9.38330078,7.91699219 Z M12.6214258,8.00056641 L12.831543,7.99755859 L13.5566406,7.97070312 L13.5566406,6.82666016 C13.5065104,6.83024089 13.455485,6.83292643 13.4035645,6.8347168 C13.3516439,6.83650716 13.3024089,6.83740234 13.2558594,6.83740234 C12.9443359,6.83740234 12.758138,6.80786133 12.6972656,6.7487793 C12.6363932,6.68969727 12.605957,6.54020182 12.605957,6.30029297 L12.605957,6.30029297 L12.605957,3.20654297 L13.5566406,3.20654297 L13.5566406,2.11621094 L12.605957,2.11621094 L12.605957,0.483398438 L11.0913086,0.483398438 L11.0913086,2.11621094 L10.2749023,2.11621094 L10.2749023,3.20654297 L11.0913086,3.20654297 L11.0913086,6.81054688 C11.0913086,7.17578125 11.1772461,7.4461263 11.3491211,7.62158203 C11.6140951,7.89729818 12.1082357,8.0226237 12.831543,7.99755859 L12.6214258,8.00056641 Z M16.0649414,7.91699219 L16.0649414,5.11865234 C16.0649414,4.64957682 16.1240234,4.30224609 16.2421875,4.07666016 C16.4534505,3.67561849 16.8670247,3.47509766 17.4829102,3.47509766 C17.5294596,3.47509766 17.590332,3.47688802 17.6655273,3.48046875 C17.7407227,3.48404948 17.8266602,3.49121094 17.9233398,3.50195312 L17.9233398,3.50195312 L17.9233398,1.93359375 C17.855306,1.93001302 17.8114421,1.92732747 17.791748,1.92553711 C17.772054,1.92374674 17.7478841,1.92285156 17.7192383,1.92285156 C17.2609049,1.92285156 16.8885091,2.04280599 16.6020508,2.28271484 C16.4265951,2.42594401 16.2207031,2.69270833 15.984375,3.08300781 L15.984375,3.08300781 L15.984375,2.0625 L14.5234375,2.0625 L14.5234375,7.91699219 L16.0649414,7.91699219 Z" id="Ultr" fill="#FFFFFF"></path>
                    <path d="M21.4521484,8.12109375 C22.4583333,8.12109375 23.2084961,7.81583659 23.7026367,7.20532227 C24.1967773,6.59480794 24.4438477,5.85986328 24.4438477,5.00048828 C24.4438477,4.1554362 24.1967773,3.42317708 23.7026367,2.80371094 C23.2084961,2.18424479 22.4583333,1.87451172 21.4521484,1.87451172 C20.4459635,1.87451172 19.6958008,2.18424479 19.2016602,2.80371094 C18.7075195,3.42317708 18.4604492,4.1554362 18.4604492,5.00048828 C18.4604492,5.85986328 18.7075195,6.59480794 19.2016602,7.20532227 C19.6958008,7.81583659 20.4459635,8.12109375 21.4521484,8.12109375 Z M21.4467773,6.83740234 C20.9991862,6.83740234 20.654541,6.6780599 20.4128418,6.359375 C20.1711426,6.0406901 20.050293,5.58772786 20.050293,5.00048828 C20.050293,4.4132487 20.1711426,3.96118164 20.4128418,3.64428711 C20.654541,3.32739258 20.9991862,3.16894531 21.4467773,3.16894531 C21.8943685,3.16894531 22.2381185,3.32739258 22.4780273,3.64428711 C22.7179362,3.96118164 22.8378906,4.4132487 22.8378906,5.00048828 C22.8378906,5.58772786 22.7179362,6.0406901 22.4780273,6.359375 C22.2381185,6.6780599 21.8943685,6.83740234 21.4467773,6.83740234 Z" id="o" fill="#E02020"></path>
                    <path d="M27.0756836,7.91699219 L27.0756836,4.74804688 C27.0756836,4.38639323 27.1258138,4.08919271 27.2260742,3.85644531 C27.4194336,3.41601562 27.7757161,3.19580078 28.2949219,3.19580078 C28.7174479,3.19580078 29.0039062,3.34619141 29.1542969,3.64697266 C29.2366536,3.8116862 29.277832,4.04801432 29.277832,4.35595703 L29.277832,4.35595703 L29.277832,7.91699219 L30.8461914,7.91699219 L30.8461914,3.97460938 C30.8461914,3.2405599 30.6537272,2.71508789 30.2687988,2.39819336 C29.8838704,2.08129883 29.3888346,1.92285156 28.7836914,1.92285156 C28.300293,1.92285156 27.9010417,2.04101562 27.5859375,2.27734375 C27.4104818,2.40983073 27.2242839,2.62646484 27.0273438,2.92724609 L27.0273438,2.92724609 L27.0273438,2.07324219 L25.550293,2.07324219 L25.550293,7.91699219 L27.0756836,7.91699219 Z" id="n" fill="#FFFFFF"></path>
                </g>
            </g>
        </g>
    </g>
</svg>