<?xml version="1.0" encoding="UTF-8"?>
<svg width="256px" height="46px" viewBox="0 0 256 46" version="1.1" xmlns="http://www.w3.org/2000/svg" xmlns:xlink="http://www.w3.org/1999/xlink">
    <title>编组 11</title>
    <g id="页面-1" stroke="none" stroke-width="1" fill="none" fill-rule="evenodd">
        <g id="画板备份" transform="translate(-129.000000, -101.000000)" fill-rule="nonzero">
            <g id="编组-2" transform="translate(95.666667, 101.160000)">
                <g id="编组-11" transform="translate(33.989583, 0.000000)">
                    <path d="M99.84375,13.84 C92.3871094,13.84 86.34375,19.8833594 86.34375,27.34 C86.34375,34.7966406 92.3871094,40.84 99.84375,40.84 C107.300391,40.84 113.34375,34.7966406 113.34375,27.34 C113.34375,19.8833594 107.300391,13.84 99.84375,13.84 Z M96.0094049,37.9482966 C94.5160591,37.367533 93.1712074,36.5375037 92.0196781,35.4813363 C90.865347,34.4225991 89.9603739,33.1916887 89.3299746,31.8220117 C88.6743594,30.4035095 88.34375,28.8950661 88.34375,27.3403671 C88.34375,26.5951395 88.4193979,25.8601909 88.5706937,25.1432305 C88.7528091,25.2074743 88.9573386,25.2434508 89.1562646,25.2434508 C89.4280367,25.2434508 89.6970071,25.1817768 89.9155455,25.0481498 C90.1396874,24.911953 90.4002525,24.84 90.6580157,24.84 C90.8793559,24.84 91.1006961,24.8939648 91.2968203,25.004464 C91.523764,25.1329515 91.6834652,25.3025551 91.6834652,25.5903671 C91.6834652,27.6872834 91.7619148,29.925536 93.8380297,29.956373 C93.8996687,29.956373 94.9923608,30.3392658 95.5134908,31.583025 C95.5751299,31.726931 95.6928044,31.7731865 95.8553073,31.7731865 C96.1775114,31.7731865 96.6678219,31.583025 97.188952,31.583025 C97.5783986,31.583025 97.188952,32.189486 97.188952,33.497489 C97.1917537,34.7926432 100.251291,36.7996182 100.251291,36.7996182 C100.234481,37.6219383 100.276507,38.3029222 100.34375,38.84 C98.8448007,38.7834655 97.3878779,38.4828047 96.0094049,37.9482966 Z M107.902437,35.6720853 C106.817409,36.7471931 105.555933,37.5900567 104.152244,38.1771908 C103.509654,38.4459678 102.851263,38.6573361 102.177071,38.8060767 C102.137568,38.7982482 102.092797,38.7956388 102.045393,38.7956388 C101.953218,38.7956388 101.847876,38.8086862 101.729366,38.84 C102.137568,37.1307874 102.332452,36.1678875 103.175192,35.4424506 C104.333959,34.4456274 103.430647,33.3444248 102.543137,33.3444248 C102.493099,33.3444248 102.440428,33.3470343 102.39039,33.3548627 C102.350886,33.3600817 102.31665,33.3626912 102.285047,33.3626912 C101.700396,33.3626912 102.08753,32.4519809 101.466009,32.3997912 C100.812886,32.3449921 99.9569778,31.058516 99.0062616,30.6122941 C98.5058846,30.3774404 98.0186755,29.7459451 97.2417744,29.7120218 L97.1970038,29.7120218 C96.7071611,29.7120218 96.0830067,30.0016746 95.7643456,30.0016746 C95.6379346,30.0016746 95.5589277,29.9547039 95.5589277,29.8268391 C95.5589277,28.3368232 95.4035475,27.2773724 95.3798454,26.8572453 C95.3693111,26.7137236 95.3271741,26.6719719 95.3508762,26.6719719 C95.382479,26.6719719 95.5404927,26.7554754 96.0830067,26.7685228 L96.0961745,26.7685228 C96.5860172,26.7685228 96.3516301,25.7638711 96.8362057,25.7247288 C96.8572742,25.7221194 96.8783427,25.7221194 96.8994112,25.7221194 C97.3313155,25.7221194 98.1503536,26.0300386 98.5796244,26.0300386 C98.6691655,26.0300386 98.7402717,26.0169912 98.7876758,25.9856773 C98.792943,25.9830678 98.7982101,25.9804584 98.8061108,25.9804584 C99.0378643,25.9804584 99.9490771,28.2324438 100.459988,28.2324438 C100.670673,28.2324438 100.812886,27.8488496 100.812886,26.7711323 C100.812886,26.3249104 100.575865,25.5472839 100.812886,25.1193283 C101.737266,23.444039 102.601075,22.0740595 102.527335,21.8809576 C102.503633,21.8209394 102.229743,21.7661402 101.868944,21.7661402 C101.560818,21.7661402 101.192119,21.8052825 100.86029,21.9122714 C100.612735,21.9931654 100.93403,22.3741502 100.591666,22.4550442 C100.362546,22.5072339 100.138694,22.5307193 99.9280086,22.5307193 C98.9219875,22.5307193 98.1951242,22.0009939 98.5243195,21.4921443 C98.943056,20.8684774 100.441553,21.2155389 100.575865,19.9629862 C100.636437,19.3836805 100.689108,18.7313093 100.728612,18.175489 C100.74178,17.9745587 100.90506,17.8179896 101.107845,17.8049421 C102.08753,17.734486 102.187606,16.5784842 101.271126,15.84 C102.258712,15.9809122 103.222596,16.2470796 104.146976,16.6358929 C105.550665,17.2256365 106.814776,18.0685001 107.89717,19.1409984 C108.882123,20.1169458 109.672191,21.2364148 110.256842,22.4759201 C110.106729,22.3845882 109.951349,22.3402269 109.798602,22.3402269 C109.053304,22.3402269 108.371211,23.3422691 108.797849,24.4800045 C105.29521,27.1416791 106.193255,29.0048514 107.336221,30.0643022 C107.673317,30.3774404 108.005146,30.7793011 108.294838,31.1785523 C108.573996,31.5595371 108.747811,32.00054 108.847886,32.4624189 C108.884756,32.6294259 109.016434,32.7129294 109.208684,32.7129294 C109.498376,32.7129294 109.919746,32.522437 110.34375,32.1466712 C109.759099,33.4592421 108.937427,34.6465577 107.902437,35.6720853 L107.902437,35.6720853 Z" id="形状" fill="#E02020"></path>
                    <path d="M13.8984375,40.730625 C19.8828125,40.730625 23.9375,38.855625 26.0625,35.105625 C27.203125,33.05875 27.7734375,30.199375 27.7734375,26.5275 L27.7734375,26.5275 L27.7734375,5.293125 L20.4375,5.293125 L20.4375,26.5275 C20.4375,28.9025 20.15625,30.636875 19.59375,31.730625 C18.71875,33.668125 16.8203125,34.636875 13.8984375,34.636875 C10.9609375,34.636875 9.0546875,33.668125 8.1796875,31.730625 C7.6171875,30.636875 7.3359375,28.9025 7.3359375,26.5275 L7.3359375,26.5275 L7.3359375,5.293125 L0,5.293125 L0,26.5275 C0,30.199375 0.5703125,33.05875 1.7109375,35.105625 C3.8515625,38.855625 7.9140625,40.730625 13.8984375,40.730625 Z M40.9453125,39.84 L40.9453125,5.293125 L34.265625,5.293125 L34.265625,39.84 L40.9453125,39.84 Z M49.5234375,38.5509375 C50.6796875,39.7540625 52.8359375,40.3009375 55.9921875,40.1915625 L55.9921875,40.1915625 L59.15625,40.074375 L59.15625,35.0821875 C58.9375,35.0978125 58.7148438,35.1095313 58.4882812,35.1173438 C58.2617188,35.1251563 58.046875,35.1290625 57.84375,35.1290625 C56.484375,35.1290625 55.671875,35.0001563 55.40625,34.7423438 C55.140625,34.4845313 55.0078125,33.8321875 55.0078125,32.7853125 L55.0078125,32.7853125 L55.0078125,19.2853125 L59.15625,19.2853125 L59.15625,14.5275 L55.0078125,14.5275 L55.0078125,7.4025 L48.3984375,7.4025 L48.3984375,14.5275 L44.8359375,14.5275 L44.8359375,19.2853125 L48.3984375,19.2853125 L48.3984375,35.011875 C48.3984375,36.605625 48.7734375,37.7853125 49.5234375,38.5509375 Z M70.1015625,39.84 L70.1015625,27.6290625 C70.1015625,25.5821875 70.359375,24.0665625 70.875,23.0821875 C71.796875,21.3321875 73.6015625,20.4571875 76.2890625,20.4571875 C76.4921875,20.4571875 76.7578125,20.465 77.0859375,20.480625 C77.4140625,20.49625 77.7890625,20.5275 78.2109375,20.574375 L78.2109375,20.574375 L78.2109375,13.730625 C77.9140625,13.715 77.7226562,13.7032813 77.6367188,13.6954688 C77.5507812,13.6876563 77.4453125,13.68375 77.3203125,13.68375 C75.3203125,13.68375 73.6953125,14.2071875 72.4453125,15.2540625 C71.6796875,15.8790625 70.78125,17.043125 69.75,18.74625 L69.75,18.74625 L69.75,14.293125 L63.375,14.293125 L63.375,39.84 L70.1015625,39.84 Z M128.835938,39.84 L128.835938,26.011875 C128.835938,24.43375 129.054688,23.136875 129.492188,22.12125 C130.335938,20.199375 131.890625,19.2384375 134.15625,19.2384375 C136,19.2384375 137.25,19.8946875 137.90625,21.2071875 C138.265625,21.9259375 138.445312,22.9571875 138.445312,24.3009375 L138.445312,24.3009375 L138.445312,39.84 L145.289062,39.84 L145.289062,22.636875 C145.289062,19.43375 144.449219,17.1407813 142.769531,15.7579688 C141.089844,14.3751563 138.929688,13.68375 136.289062,13.68375 C134.179688,13.68375 132.4375,14.199375 131.0625,15.230625 C130.296875,15.80875 129.484375,16.7540625 128.625,18.0665625 L128.625,18.0665625 L128.625,14.34 L122.179688,14.34 L122.179688,39.84 L128.835938,39.84 Z M173.959875,27.888 L173.959875,7.728 L197.431875,7.728 L197.431875,27.888 L202.231875,27.888 L202.231875,3.456 L186.871875,3.456 C187.303875,2.592 187.687875,1.728 188.023875,0.768 L182.455875,0 C182.167875,1.152 181.735875,2.304 181.159875,3.456 L169.159875,3.456 L169.159875,27.888 L173.959875,27.888 Z M176.983875,26.976 C179.431875,25.488 181.639875,23.76 183.559875,21.792 L183.559875,25.872 L187.783875,25.872 L187.783875,21.792 C189.367875,22.992 191.335875,24.672 193.735875,26.832 L196.231875,23.136 C193.351875,21.456 190.567875,19.968 187.783875,18.624 L187.783875,18.576 L195.943875,18.576 L195.943875,14.736 L193.111875,14.736 C193.783875,13.488 194.407875,12.048 194.983875,10.512 L191.287875,9.216 C190.711875,11.136 190.087875,12.96 189.367875,14.736 L187.783875,14.736 L187.783875,8.976 L183.559875,8.976 L183.559875,14.736 L182.071875,14.736 C181.447875,12.72 180.775875,10.992 180.055875,9.504 L176.455875,10.848 C177.223875,12.048 177.847875,13.344 178.375875,14.736 L175.543875,14.736 L175.543875,18.576 L183.031875,18.576 C180.727875,20.304 177.943875,21.792 174.679875,23.04 L176.983875,26.976 Z M165.367875,45.12 C173.239875,43.584 178.759875,41.568 181.927875,38.976 C183.367875,37.728 184.615875,36.336 185.671875,34.704 C190.087875,39.696 196.519875,43.104 205.063875,44.976 L208.039875,40.272 C200.695875,39.12 195.127875,37.152 191.287875,34.368 L206.359875,34.368 L206.359875,29.664 L187.831875,29.664 C188.023875,28.896 188.167875,28.128 188.311875,27.36 L183.223875,26.832 C183.031875,27.792 182.791875,28.704 182.455875,29.664 L165.031875,29.664 L165.031875,34.368 L179.335875,34.368 C178.855875,34.8 178.327875,35.232 177.799875,35.616 C174.823875,37.68 170.023875,39.264 163.303875,40.368 L165.367875,45.12 Z M249.367875,44.4 C252.679875,44.4 254.359875,42.624 254.359875,39.12 L254.359875,0.576 L249.367875,0.576 L249.367875,37.872 C249.367875,39.216 248.791875,39.936 247.639875,39.936 C245.575875,39.936 243.367875,39.84 241.063875,39.648 L242.215875,44.4 L249.367875,44.4 Z M232.423875,44.112 C234.727875,44.112 236.311875,43.728 237.127875,42.96 C237.943875,42.096 238.567875,39.552 238.951875,35.328 L234.247875,33.696 C234.055875,36.096 233.767875,37.632 233.431875,38.4 C233.143875,39.12 232.279875,39.504 230.887875,39.504 L222.919875,39.504 C221.575875,39.504 220.951875,38.88 220.951875,37.632 L220.951875,20.016 L229.303875,20.016 L229.303875,27.264 C229.303875,28.224 228.775875,28.752 227.719875,28.752 C226.471875,28.752 224.935875,28.656 223.159875,28.464 L224.407875,33.12 C226.039875,33.216 227.815875,33.312 229.735875,33.312 C232.663875,33.12 234.151875,31.68 234.199875,28.992 L234.199875,15.6 L217.543875,15.6 C220.615875,12.336 223.303875,8.88 225.703875,5.328 C228.391875,8.112 231.751875,12.288 235.831875,17.76 L239.095875,14.352 C235.351875,9.648 231.367875,5.04 227.095875,0.624 L223.447875,0.624 C219.655875,6.288 215.527875,11.136 211.015875,15.264 L213.943875,19.296 L215.911875,17.328 L215.911875,39.504 C215.911875,42.576 217.495875,44.112 220.663875,44.112 L232.423875,44.112 Z M245.911875,34.176 L245.911875,4.656 L241.015875,4.656 L241.015875,34.176 L245.911875,34.176 Z" id="Ultrn奥创" fill="#FFFFFF"></path>
                </g>
            </g>
        </g>
    </g>
</svg>